<?xml version="1.0" encoding="UTF-8"?>
<svg width="30px" height="30px" viewBox="0 0 30 30" version="1.1" xmlns="http://www.w3.org/2000/svg" xmlns:xlink="http://www.w3.org/1999/xlink">
    <!-- Generator: Sketch 55.2 (78181) - https://sketchapp.com -->
    <title>Linkedin</title>
    <desc>Created with Sketch.</desc>
    <g id="Page-1" stroke="none" stroke-width="1" fill="none" fill-rule="evenodd">
        <g id="Browser" transform="translate(-886.000000, -4702.000000)" fill="#000000">
            <g id="footer-white" transform="translate(0.000000, 4490.000000)">
                <g id="Linkedin" transform="translate(886.000000, 212.000000)">
                    <path d="M3.89777778,0.506666667 C5.79555556,0.506666667 7.33555556,2.04777778 7.33555556,3.94666667 C7.33555556,5.84666667 5.79555556,7.38777778 3.89777778,7.38777778 C1.99222222,7.38777778 0.455555556,5.84666667 0.455555556,3.94666667 C0.455555556,2.04777778 1.99222222,0.506666667 3.89777778,0.506666667 L3.89777778,0.506666667 Z M0.926666667,29.0844444 L6.86555556,29.0844444 L6.86555556,9.99555556 L0.926666667,9.99555556 L0.926666667,29.0844444 Z" id="Fill-6"></path>
                    <path d="M10.5866667,9.99555556 L16.2733333,9.99555556 L16.2733333,12.6055556 L16.3555556,12.6055556 C17.1466667,11.1044444 19.0822222,9.52222222 21.9677778,9.52222222 C27.9755556,9.52222222 29.0855556,13.4744444 29.0855556,18.6155556 L29.0855556,29.0844444 L23.1533333,29.0844444 L23.1533333,19.8011111 C23.1533333,17.5877778 23.1155556,14.74 20.0711111,14.74 C16.9833333,14.74 16.5122222,17.1522222 16.5122222,19.6433333 L16.5122222,29.0844444 L10.5866667,29.0844444 L10.5866667,9.99555556" id="Fill-7"></path>
                </g>
            </g>
        </g>
    </g>
</svg>