<?xml version="1.0" standalone="no"?>
<!DOCTYPE svg PUBLIC "-//W3C//DTD SVG 20010904//EN"
 "http://www.w3.org/TR/2001/REC-SVG-20010904/DTD/svg10.dtd">
<svg version="1.0" xmlns="http://www.w3.org/2000/svg"
 width="260.000000pt" height="260.000000pt" viewBox="0 0 260.000000 260.000000"
 preserveAspectRatio="xMidYMid meet">
<metadata>
Created by potrace 1.11, written by Peter Selinger 2001-2013
</metadata>
<g transform="translate(0.000000,260.000000) scale(0.100000,-0.100000)"
fill="#000000" stroke="none">
<path d="M170 1945 l0 -595 155 0 155 0 0 240 0 240 225 0 225 0 0 -240 0
-240 160 0 160 0 0 595 0 595 -160 0 -160 0 0 -235 0 -235 -225 0 -225 0 0
235 0 235 -155 0 -155 0 0 -595z"/>
<path d="M1440 1945 l0 -595 475 0 475 0 0 120 0 120 -320 0 -320 0 0 120 0
120 245 0 245 0 0 115 0 115 -245 0 -245 0 0 120 0 120 310 0 310 0 0 120 0
120 -465 0 -465 0 0 -595z"/>
<path d="M144 1235 c3 -9 96 -178 206 -376 l200 -360 0 -219 0 -220 160 0 160
0 0 220 0 219 200 360 c110 198 203 367 206 376 6 14 -12 15 -152 13 l-158 -3
-88 -170 c-48 -93 -104 -209 -125 -256 l-38 -87 -127 259 -127 259 -161 0
c-142 0 -161 -2 -156 -15z"/>
</g>
</svg>
