<?xml version="1.0" encoding="UTF-8"?>
<svg width="120px" height="120px" viewBox="0 0 120 120" version="1.1" xmlns="http://www.w3.org/2000/svg" xmlns:xlink="http://www.w3.org/1999/xlink">
    <!-- Generator: Sketch 55.2 (78181) - https://sketchapp.com -->
    <title>me-night</title>
    <desc>Created with Sketch.</desc>
    <g id="me-night" stroke="none" stroke-width="1" fill="none" fill-rule="evenodd">
        <g id="Group">
            <rect id="Rectangle" fill="#FFFFFF" x="0" y="0" width="120" height="120" rx="60"></rect>
            <path d="M14.2935693,89.323294 C32.8063641,81.2764326 38.2201343,97.8072451 55.6782086,101.944571 C63.4657956,103.790123 71.5646379,95.4320567 77.034186,96.3424699 C93,99 98,102 107,96" id="Path-64" stroke="#000000" stroke-width="2" stroke-linecap="round"></path>
            <path d="M39,74 C44.9398278,72.8120344 53,78 60,77 C67,76 77,69 77,74 C77,79 69,88 63,90 C59,91.3333333 52.6666667,89.3333333 44,84 C36.7067815,78.1253104 35.0401148,74.791977 39,74 Z" id="Path-36" fill-opacity="0.1" fill="#000000"></path>
            <g id="illustration" transform="translate(28.600000, 1.555002)">
                <path d="M7.42207133,60.3163832 C8.6105566,66.205836 9.33930256,70.4670853 15.56,76.7649979 C25.6046959,86.9343748 39.329532,86.3411969 47.24,75.3249979 C48.6100144,73.4171018 51.0908398,70.9018831 51.9701308,68.3645896 C53.2658154,64.6257454 53.5573417,61.5707671 53.8025489,58.0382688" id="Path-5" stroke="#000000" stroke-width="2" stroke-linecap="round"></path>
                <path d="M8.71584755,54.245349 C7.29050763,52.2848433 6.15009894,50.0814318 4.43982781,48.363832 C-0.808193477,43.0933226 0.0280994329,69.9359148 10.4767399,60.3171302" id="Path-6" stroke="#000000" stroke-width="2" stroke-linecap="round"></path>
                <path d="M52.5385958,50.6034479 C53.8970416,49.2755148 55.0849732,47.7385224 56.6139333,46.6196484 C66.1250376,39.6595403 55.8609212,74.2376792 51.4055486,58.1794312" id="Path-7" stroke="#000000" stroke-width="2" stroke-linecap="round"></path>
                <path d="M65.4,38.9396341 C70.0446116,39.3330948 69.6754885,36.1109515 66.3454035,36.4735103" id="Path-2" stroke="#000000" stroke-width="2" stroke-linecap="round"></path>
                <path d="M67.4,25.9328921 C68.9484712,38.7724527 78.8916085,33.0768926 71.9842194,25.5419327" id="Path-4" stroke="#000000" stroke-width="2" stroke-linecap="round"></path>
                <path d="M68.9092128,20.0186333 C73.9152352,21.2447375 79.0976543,25.3141221 83.92728,23.696946 C91.5787064,21.1349041 91.9631949,9.36359863 86.3638826,4.41717844 C80.4678676,-0.791348233 69.0986225,-1.79458254 65.6354002,7.04213946 C64.7532036,9.29314305 66.5716281,14.4343486 67.4507994,16.6861106" id="Path-8" stroke="#000000" stroke-width="2" stroke-linecap="round"></path>
                <path d="M74.6354002,10.0722648 C75.6069872,9.7888448 76.4969664,9.64713479 77.3053378,9.64713479 C78.1137092,9.64713479 78.8903966,9.7888448 79.6354002,10.0722648" id="Path-65" stroke="#000000" stroke-linecap="round"></path>
                <path d="M75.6354002,6.36636129 C76.5818,5.58737474 76.8972665,4.87180413 76.5818,4.21964945" id="Path-67" stroke="#000000" stroke-linecap="round" transform="translate(76.167750, 5.293005) rotate(-29.000000) translate(-76.167750, -5.293005) "></path>
                <path d="M73.6354002,7.86462948 C73.8413472,6.76797613 74.2261673,6.21964945 74.7898605,6.21964945" id="Path-68" stroke="#000000" stroke-linecap="round" transform="translate(74.212630, 7.042139) rotate(-39.000000) translate(-74.212630, -7.042139) "></path>
                <path d="M55.4,10.4449979 C23.4,-7.55500209 -6.67066055,3.06595574 2.59878221,45.087332 C3.47640524,49.0658805 8.86521477,44.9463335 9.15086637,44.2990197 C9.64102623,43.1882708 8.49492052,23.1268305 18.4,23.4449979 C23.194761,23.5990135 29.6028108,25.4242678 34.4,25.4449979 C38.675948,25.4634756 46.1521987,19.9548381 50.4,20.4449979 C52.0716976,20.6378975 52.1351158,22.062851 52.6223981,23.6735462 C53.0054098,24.9395784 53.5261013,37.2015151 57.4,40.4449979 C59.7896829,42.4457976 64.2588884,46.0516449 62.4,32.4449979 C61.7703864,27.8363673 61.0531749,20.7927447 59.4,16.4449979 L55.4,10.4449979 Z" id="Path" fill="#000000"></path>
                <g id="hair" transform="translate(3.061805, 8.266215)" stroke="#FFFFFF" stroke-linecap="round">
                    <path d="M24.2110999,0.976956257 C23.9624964,0.778174181 23.713893,0.579392105 23.4652896,0.38061003" id="Path-48"></path>
                    <path d="M21.102526,7.61100191 C21.8155339,7.80606561 22.5285418,8.00112931 23.2415497,8.19619301" id="Path-49"></path>
                    <path d="M41.3998863,7.57761692 C41.7865957,6.92168144 42.1733051,6.26574597 42.5600146,5.60981049" id="Path-50"></path>
                    <path d="M38.8898123,1.98706264 C39.4712675,1.66084364 40.0527227,1.33462464 40.6341778,1.00840564" id="Path-51"></path>
                    <path d="M1,31.4538431 C1.47891557,31.181835 1.95783113,30.9098269 2.4367467,30.6378187" id="Path-52"></path>
                    <path d="M0.338194744,20.1787831 C0.708211666,20.7172353 1.07822859,21.2556874 1.44824551,21.7941395" id="Path-53"></path>
                    <path d="M6.33819474,6.74448003 C6.978948,6.7006821 7.61970126,6.65688418 8.26045451,6.61308626" id="Path-54"></path>
                    <path d="M6.1211325,14.9076485 C5.93250733,14.33136 5.74388216,13.7550716 5.55525699,13.1787831" id="Path-55"></path>
                    <path d="M30.3381947,9.46464231 C30.8785546,9.60740286 31.4189144,9.75016342 31.9592743,9.89292398" id="Path-56"></path>
                    <path d="M55.8827495,29.6114752 C55.5141634,28.8533976 56.1622261,28.9368608 55.79364,28.1787831" id="Path-57"></path>
                    <path d="M53.3381947,13.7984922 C53.7824535,13.7186861 54.2267123,13.6388801 54.6709711,13.5590741" id="Path-58"></path>
                    <path d="M49.0354046,8.17878314 C48.9039314,8.6344882 48.7724581,9.09019325 48.6409849,9.5458983" id="Path-59"></path>
                    <path d="M52.5324837,19.0647374 C52.736291,18.8074346 52.9400984,18.5501317 53.1439058,18.2928289" id="Path-60"></path>
                </g>
                <path d="M20.5515302,66.2431415 C33.4,64.4449979 34.4,64.4449979 42.92,65.2849979" id="Path-19" stroke="#000000" stroke-width="2" stroke-linecap="round"></path>
                <path d="M25.4,67.4449979 C27.9344298,68.1116646 30.2677631,68.4449979 32.4,68.4449979 C34.5322369,68.4449979 36.5322369,68.1116646 38.4,67.4449979" id="Path-22" stroke="#000000" stroke-width="2" stroke-linecap="round"></path>
                <path d="M35.72,34.0449979 C32.84,40.7649979 31.56,45.5649979 31.88,48.4449979 C32.2,51.3249979 33.64,53.2449979 36.2,54.2049979 C36.2,57.0849979 34.76,58.2049979 31.88,57.5649979" id="Path-23" stroke="#000000" stroke-width="2" stroke-linecap="round"></path>
                <path d="M6.8079805,34.2060319 C10.4186768,29.821615 24.9612967,29.9333913 32.7465855,31.2309394 C40.5318743,32.5284875 57.4,32.5284875 57.4,42.9088726 C57.4,53.2892576 49.6147112,58.4794502 43.1269706,55.8843539 C36.6392299,53.2892576 35.3416818,46.801517 30.1514893,48.0990651 C24.9612967,49.3966132 22.3662005,53.2892576 14.5809117,53.2892576 C6.7956229,53.2892576 3.19728422,38.5904488 6.8079805,34.2060319 Z" id="Path-61" fill="#A6F0D7"></path>
                <path d="M14.4,40.4449979 C15.7333333,42.4449979 17.0666667,43.4449979 18.4,43.4449979 C19.7333333,43.4449979 21.4,42.7783312 23.4,41.4449979" id="Path-62" stroke="#000000" stroke-width="2" stroke-linecap="round"></path>
                <path d="M40.4,43.4449979 C41.7333333,45.4449979 43.4,46.4449979 45.4,46.4449979 C47.4,46.4449979 48.7333333,45.7783312 49.4,44.4449979" id="Path-63" stroke="#000000" stroke-width="2" stroke-linecap="round"></path>
                <path d="M13.16,76.7649979 C13.8,82.2049979 13.8,85.7249979 13.16,87.3249979" id="Path-33" stroke="#000000" stroke-width="2" stroke-linecap="round"></path>
                <path d="M50.12,76.2849979 L50.12,85.4049979 C51.72,88.6049979 52.84,90.2049979 53.48,90.2049979" id="Path-34" stroke="#000000" stroke-width="2" stroke-linecap="round"></path>
                <path d="M73.7871828,11.7270939 C73.5143131,15.3558983 73.6093605,17.3976613 74.0723249,17.8523827 C74.7667715,18.5344649 80.6354002,18.5202148 80.6354002,17.1615906 C80.6354002,15.8029664 80.6354002,11.7270939 80.6354002,10.3684697 C80.6354002,9.74958156 79.266945,10.5812622 77.1354002,10.8081324 C76.1474064,10.9132891 74.0171531,9.82365034 73.7871828,10.3684697 C73.6338693,10.7316826 73.6338693,11.1845574 73.7871828,11.7270939 Z" id="Path-9" fill="#000000"></path>
                <path d="M79.6354002,11.7270939 C80.4310941,10.8213444 81.226788,10.3684697 82.0224819,10.3684697 C83.2160227,10.3684697 82.3570757,11.5622267 82.0224819,13.0857181 C81.687888,14.6092094 82.0224819,18.5202148 80.828941,15.8029664" id="Path-10" stroke="#000000" stroke-linecap="round"></path>
            </g>
        </g>
    </g>
</svg>