<?xml version="1.0" encoding="UTF-8"?>
<svg width="120px" height="120px" viewBox="0 0 120 120" version="1.1" xmlns="http://www.w3.org/2000/svg" xmlns:xlink="http://www.w3.org/1999/xlink">
    <!-- Generator: Sketch 55.2 (78181) - https://sketchapp.com -->
    <title>Group</title>
    <desc>Created with Sketch.</desc>
    <g id="Page-1" stroke="none" stroke-width="1" fill="none" fill-rule="evenodd">
        <g id="me">
            <g id="Group">
                <rect id="Rectangle" fill="#FFFFFF" x="0" y="0" width="120" height="120" rx="60"></rect>
                <path d="M40,72 C45.9398278,70.8120344 54,76 61,75 C68,74 78,67 78,72 C78,77 70,86 64,88 C60,89.3333333 53.6666667,87.3333333 45,82 C37.7067815,76.1253104 36.0401148,72.791977 40,72 Z" id="Path-36" fill-opacity="0.1" fill="#000000"></path>
                <polygon id="Rectangle" fill="#A6F0D7" transform="translate(58.560000, 42.800000) rotate(-5.000000) translate(-58.560000, -42.800000) " points="10.56 32.24 106.56 32.24 106.56 53.36 10.56 53.36"></polygon>
                <g id="illustration" transform="translate(14.600000, 2.555002)">
                    <path d="M65.08,82.0049979 C72.44,85.5249979 76.92,89.8449979 78.52,94.9649979 C78.7546876,95.7159983 78.9790481,96.4773259 79.1930814,97.2489807 C80.0231841,100.241753 80.9188237,105.080425 81.88,111.764998 C77.08,110.804998 74.04,109.844998 72.76,108.884998 C70.84,107.444998 67.48,106.964998 67,107.444998 C66.52,107.924998 70.4784689,101.374566 70.36,95.9249979" id="Path-27" stroke="#000000" stroke-width="2" stroke-linecap="round"></path>
                    <path d="M88.2571429,102.944998 C89.4,103.478331 89.6857143,104.011665 89.1142857,104.544998 C88.5428571,105.078331 87.9714286,105.078331 87.4,104.544998" id="Path-40" stroke="#000000" stroke-width="2" stroke-linecap="round"></path>
                    <path d="M83.4,97.6830931 C83.6222222,97.1116646 83.8444444,96.9688074 84.0666667,97.2545217 C84.2888889,97.540236 84.4,97.8259503 84.4,98.1116646" id="Path-41" stroke="#000000" stroke-width="2" stroke-linecap="round"></path>
                    <path d="M96.6380952,107.444998 C96.0666667,107.444998 95.9238095,107.66722 96.2095238,108.111665 C96.4952381,108.556109 96.7809524,108.556109 97.0666667,108.111665" id="Path-42" stroke="#000000" stroke-width="2" stroke-linecap="round"></path>
                    <path d="M88.4,113.587855 C88.9333333,112.444998 89.4666667,112.159284 90,112.730712 C90.5333333,113.302141 90.5333333,113.873569 90,114.444998" id="Path-43" stroke="#000000" stroke-width="2" stroke-linecap="round"></path>
                    <path d="M8.59047619,86.4449979 C9.73333333,86.9783312 10.0190476,87.5116646 9.44761905,88.0449979 C8.87619048,88.5783312 8.3047619,88.5783312 7.73333333,88.0449979" id="Path-40" stroke="#000000" stroke-width="2" stroke-linecap="round"></path>
                    <path d="M8.20952381,93.4449979 C7.06666667,93.4449979 6.78095238,93.8894424 7.35238095,94.7783312 C7.92380952,95.6672201 8.4952381,95.6672201 9.06666667,94.7783312" id="Path-42" stroke="#000000" stroke-width="2" stroke-linecap="round"></path>
                    <path d="M0.4,98.5878551 C0.933333333,97.4449979 1.46666667,97.1592836 2,97.7307122 C2.53333333,98.3021408 2.53333333,98.8735693 2,99.4449979" id="Path-43" stroke="#000000" stroke-width="2" stroke-linecap="round"></path>
                    <path d="M76.4,114.444998 C76.4,115.111665 76.7333333,115.444998 77.4,115.444998 C78.0666667,115.444998 78.4,115.111665 78.4,114.444998" id="Path-44" stroke="#000000" stroke-width="2" stroke-linecap="round"></path>
                    <path d="M0.4,107.444998 C0.4,108.778331 0.733333333,109.444998 1.4,109.444998 C2.06666667,109.444998 2.4,108.778331 2.4,107.444998" id="Path-44" stroke="#000000" stroke-width="2" stroke-linecap="round"></path>
                    <path d="M75.4,105.069998 C75.8444444,103.736665 76.2888889,103.29222 76.7333333,103.736665 C77.1777778,104.181109 77.4,104.403331 77.4,104.403331" id="Path-45" stroke="#000000" stroke-width="2" stroke-linecap="round"></path>
                    <path d="M73.4,99.4449979 C72.7333333,98.7783312 72.7333333,98.1116646 73.4,97.4449979 C74.0666667,96.7783312 74.4,97.1116646 74.4,98.4449979" id="Path-46" stroke="#000000" stroke-width="2" stroke-linecap="round"></path>
                    <path d="M20.4,84.4449979 C11.0666667,85.1116646 4.73333333,86.7783312 1.4,89.4449979" id="Path-47" stroke="#000000" stroke-width="2" stroke-linecap="round"></path>
                    <path d="M7.4,102.683093 C7.62222222,102.111665 7.84444444,101.968807 8.06666667,102.254522 C8.28888889,102.540236 8.4,102.82595 8.4,103.111665" id="Path-41" stroke="#000000" stroke-width="2" stroke-linecap="round"></path>
                    <path d="M71.4,88.6830931 C71.6222222,88.1116646 71.8444444,87.9688074 72.0666667,88.2545217 C72.2888889,88.540236 72.4,88.8259503 72.4,89.1116646" id="Path-41" stroke="#000000" stroke-width="2" stroke-linecap="round"></path>
                    <path d="M12.36,114.164998 C11.7678635,107.038914 12.4078635,101.278914 14.28,96.8849979 C17.0882048,90.2941235 22.6416199,87.0268237 24.5281254,85.6063309" id="Path-28" stroke="#000000" stroke-width="2" stroke-linecap="round"></path>
                    <path d="M65.6,110.924998 C66.56,113.484998 66.72,115.404998 66.08,116.684998" id="Path-29" stroke="#000000" stroke-width="2" stroke-linecap="round"></path>
                    <path d="M78.04,88.7249979 C91.48,94.8049979 98.84,98.6449979 100.12,100.244998" id="Path-30" stroke="#000000" stroke-width="2" stroke-linecap="round"></path>
                    <path d="M29.56,95.9249979 C34.1728531,99.3066922 39.4528531,101.066692 45.4,101.204998 C51.3471469,101.343304 56.9471469,99.9033036 62.2,96.8849979" id="Path-32" stroke="#000000" stroke-width="2" stroke-linecap="round"></path>
                    <path d="M21.4220713,59.3163832 C22.6105566,65.205836 23.3393026,69.4670853 29.56,75.7649979 C39.6046959,85.9343748 53.329532,85.3411969 61.24,74.3249979 C62.6100144,72.4171018 65.0908398,69.9018831 65.9701308,67.3645896 C67.2658154,63.6257454 67.5573417,60.5707671 67.8025489,57.0382688" id="Path-5" stroke="#000000" stroke-width="2" stroke-linecap="round"></path>
                    <path d="M22.7158475,53.245349 C21.2905076,51.2848433 20.1500989,49.0814318 18.4398278,47.363832 C13.1918065,42.0933226 14.0280994,68.9359148 24.4767399,59.3171302" id="Path-6" stroke="#000000" stroke-width="2" stroke-linecap="round"></path>
                    <path d="M66.5385958,49.6034479 C67.8970416,48.2755148 69.0849732,46.7385224 70.6139333,45.6196484 C80.1250376,38.6595403 69.8609212,73.2376792 65.4055486,57.1794312" id="Path-7" stroke="#000000" stroke-width="2" stroke-linecap="round"></path>
                    <path d="M21.5462332,45.854875 C24.6924663,47.264752 21.278993,24.3743937 30.6832895,15.264729 C38.4741632,7.71793949 57.4,31.4449979 68.4,9.44499791 L59.4,5.44499791 C51.4,0.111664574 43.4,-0.888335426 35.4,2.44499791 C23.4,7.44499791 21.4,11.4449979 19.4,19.4449979 C17.4,27.4449979 14.4,34.4449979 16.4,39.4449979 C18.4,44.4449979 18.4,44.4449979 21.5462332,45.854875 Z" id="Path-12" stroke="#000000" stroke-width="2" fill="#000000" stroke-linecap="round"></path>
                    <path d="M59.4,18.4449979 C54.4,20.4449979 65.4,19.4449979 67.4,27.4449979 C69.4,35.4449979 66.4,45.4449979 70.4,40.4449979 C74.4,35.4449979 74.4,21.4449979 73.4,17.4449979 C72.4,13.4449979 67.4,12.4449979 68.4,9.44499791 C69.4,6.44499791 64.4,16.4449979 59.4,18.4449979 Z" id="Path-39" fill="#000000"></path>
                    <g id="hair" transform="translate(18.061805, 7.266215)" stroke="#FFFFFF" stroke-linecap="round">
                        <path d="M27.8508016,3.2789452 C27.6021982,3.08016313 27.3535948,2.88138105 27.1049914,2.68259898" id="Path-48"></path>
                        <path d="M30.102526,7.61100191 C30.8155339,7.80606561 31.5285418,8.00112931 32.2415497,8.19619301" id="Path-49"></path>
                        <path d="M40.3998863,7.57761692 C40.7865957,6.92168144 41.1733051,6.26574597 41.5600146,5.60981049" id="Path-50"></path>
                        <path d="M37.8898123,1.98706264 C38.4712675,1.66084364 39.0527227,1.33462464 39.6341778,1.00840564" id="Path-51"></path>
                        <path d="M-7.10542736e-15,31.4538431 C0.478915565,31.181835 0.957831131,30.9098269 1.4367467,30.6378187" id="Path-52"></path>
                        <path d="M1.89626718,21.1033053 C2.2662841,21.6417574 2.63630102,22.1802096 3.00631794,22.7186617" id="Path-53"></path>
                        <path d="M5.91748868,15.2931255 C6.55824193,15.2493276 7.19899519,15.2055297 7.83974845,15.1617318" id="Path-54"></path>
                        <path d="M6.0524594,8.54959693 C5.86383423,7.97330849 5.67520907,7.39702005 5.4865839,6.82073161" id="Path-55"></path>
                        <path d="M13.0377907,0.285859165 C13.5781505,0.428619722 14.1185104,0.571380278 14.6588702,0.714140835" id="Path-56"></path>
                        <path d="M52.8827495,17.6114752 C52.5141634,16.8533976 53.1622261,16.9368608 52.79364,16.1787831" id="Path-57"></path>
                        <path d="M47.1372149,12.9506919 C47.5814736,12.8708859 48.0257324,12.7910798 48.4699912,12.7112738" id="Path-58"></path>
                        <path d="M51.3983313,8.19547762 C51.2668581,8.65118267 51.1353848,9.10688772 51.0039116,9.56259277" id="Path-59"></path>
                        <path d="M51.4674859,30.2677223 C51.6712933,30.0104194 51.8751007,29.7531166 52.0789081,29.4958137" id="Path-60"></path>
                    </g>
                    <path d="M27.64,43.0849979 C30.52,39.5649979 33.08,37.8049979 35.32,37.8049979" id="Path-20" stroke="#000000" stroke-width="2" stroke-linecap="round"></path>
                    <path d="M64.12,42.115843 C62.84,42.5149566 61.56,42.3153998 60.28,41.5171726 C58.36,40.3198317 57.88,38.5238204 55.48,38.5238204 C53.08,38.5238204 50.68,40.9185021 50.68,41.5171726" id="Path-21" stroke="#000000" stroke-width="2" stroke-linecap="round"></path>
                    <path d="M49.72,33.0449979 C46.84,39.7649979 45.56,44.5649979 45.88,47.4449979 C46.2,50.3249979 47.64,52.2449979 50.2,53.2049979 C50.2,56.0849979 48.76,57.2049979 45.88,56.5649979" id="Path-23" stroke="#000000" stroke-width="2" stroke-linecap="round"></path>
                    <path d="M36.3040074,60.4449979 C35.5173069,60.4449979 33.1361032,62.2706201 33.4240074,64.7649979" id="Path-24" stroke="#000000" stroke-width="2" stroke-linecap="round"></path>
                    <path d="M37.5515302,64.2431415 C41.4509545,66.1227602 43.3663306,65.596638 45.6474813,65.6349212 C49.2910697,65.6960693 52.4635046,65.210754 55.5515302,63.2849979" id="Path-19" stroke="#000000" stroke-width="2" stroke-linecap="round"></path>
                    <path d="M38.4,64.7129583 C41.4255639,66.5598921 44.1427406,67.483359 46.5515302,67.483359 C48.9603198,67.483359 51.2711222,66.470572 53.4839375,64.4449979" id="Path-22" stroke="#000000" stroke-width="2" stroke-linecap="round"></path>
                    <path d="M27.16,75.7649979 C27.8,81.2049979 27.8,84.7249979 27.16,86.3249979" id="Path-33" stroke="#000000" stroke-width="2" stroke-linecap="round"></path>
                    <path d="M64.12,75.2849979 L64.12,84.4049979 C65.72,87.6049979 66.84,89.2049979 67.48,89.2049979" id="Path-34" stroke="#000000" stroke-width="2" stroke-linecap="round"></path>
                    <path d="M34.84,44.0849979 C35.9003867,44.0849979 36.76,43.2253846 36.76,42.1649979 C36.76,41.8236315 36.6709126,41.5030725 36.514719,41.2253022 C36.3970708,41.0160799 35.5043992,41.8362755 35.32,41.6849979 C35.1097979,41.512552 35.5992806,40.3787148 35.3284594,40.3076843 C35.1724985,40.2667792 35.0087929,40.2449979 34.84,40.2449979 C33.7796133,40.2449979 32.92,41.1046112 32.92,42.1649979 C32.92,43.2253846 33.7796133,44.0849979 34.84,44.0849979 Z" id="Oval" fill="#000000"></path>
                    <circle id="Oval" fill="#000000" cx="55" cy="42.1649979" r="1.92"></circle>
                </g>
            </g>
        </g>
    </g>
</svg>